<mxfile host="app.diagrams.net" modified="2023-06-25T17:42:51.828Z" agent="Mozilla/5.0 (Macintosh; Intel Mac OS X 10_15_7) AppleWebKit/537.36 (KHTML, like Gecko) Chrome/114.0.0.0 Safari/537.36" version="21.3.8" etag="QLMlWBEeyGGKXAR3QOD7" type="github">
  <diagram name="第 1 页" id="Xt4wWxYiMbqF5xh7-wkg">
    <mxGraphModel>
      <root>
        <mxCell id="0" />
        <mxCell id="1" parent="0" />
      </root>
    </mxGraphModel>
  </diagram>
</mxfile>
